<?xml version="1.0"?>
<svg xmlns="http://www.w3.org/2000/svg" width="96" height="96" viewBox="0 0 96 96" fill="none">
<circle cx="48" cy="48" r="48" fill="#001E2B"/>
<path d="M74.6667 58.6669V59.1669C74.9428 59.1669 75.1667 58.943 75.1667 58.6669H74.6667ZM39.1111 58.6669H38.6111C38.6111 58.943 38.835 59.1669 39.1111 59.1669V58.6669ZM65.2778 32.0002C65.2778 36.6333 61.522 40.3891 56.8889 40.3891V41.3891C62.0743 41.3891 66.2778 37.1856 66.2778 32.0002H65.2778ZM56.8889 40.3891C52.2559 40.3891 48.5 36.6333 48.5 32.0002H47.5C47.5 37.1856 51.7036 41.3891 56.8889 41.3891V40.3891ZM48.5 32.0002C48.5 27.3672 52.2559 23.6113 56.8889 23.6113V22.6113C51.7036 22.6113 47.5 26.8149 47.5 32.0002H48.5ZM56.8889 23.6113C61.522 23.6113 65.2778 27.3672 65.2778 32.0002H66.2778C66.2778 26.8149 62.0743 22.6113 56.8889 22.6113V23.6113ZM74.6667 58.1669H39.1111V59.1669H74.6667V58.1669ZM39.6111 58.6669C39.6111 49.1653 47.3873 41.3891 56.8889 41.3891V40.3891C46.835 40.3891 38.6111 48.613 38.6111 58.6669H39.6111ZM56.8889 41.3891C66.5387 41.3891 74.1667 49.0171 74.1667 58.6669H75.1667C75.1667 48.4648 67.091 40.3891 56.8889 40.3891V41.3891Z" fill="white"/>
<path d="M39.1112 55.1113C44.0204 55.1113 48 51.1316 48 46.2224C48 41.3132 44.0204 37.3335 39.1112 37.3335C34.202 37.3335 30.2223 41.3132 30.2223 46.2224C30.2223 51.1316 34.202 55.1113 39.1112 55.1113Z" fill="#00ED64"/>
<path d="M56.8889 72.8891H21.3334C21.3334 63.1113 29.3334 55.1113 39.1112 55.1113C48.8889 55.1113 56.8889 62.9631 56.8889 72.8891Z" fill="#00ED64"/>
<path d="M56.8889 72.8891V73.3891C57.1651 73.3891 57.3889 73.1652 57.3889 72.8891H56.8889ZM21.3334 72.8891H20.8334C20.8334 73.1652 21.0572 73.3891 21.3334 73.3891V72.8891ZM39.1112 55.6113C44.2965 55.6113 48.5 51.4077 48.5 46.2224H47.5C47.5 50.8554 43.7442 54.6113 39.1112 54.6113V55.6113ZM48.5 46.2224C48.5 41.037 44.2965 36.8335 39.1112 36.8335V37.8335C43.7442 37.8335 47.5 41.5893 47.5 46.2224H48.5ZM39.1112 36.8335C33.9258 36.8335 29.7223 41.037 29.7223 46.2224H30.7223C30.7223 41.5893 34.4781 37.8335 39.1112 37.8335V36.8335ZM29.7223 46.2224C29.7223 51.4077 33.9258 55.6113 39.1112 55.6113V54.6113C34.4781 54.6113 30.7223 50.8554 30.7223 46.2224H29.7223ZM56.8889 72.3891H21.3334V73.3891H56.8889V72.3891ZM21.8334 72.8891C21.8334 63.3874 29.6095 55.6113 39.1112 55.6113V54.6113C29.0572 54.6113 20.8334 62.8351 20.8334 72.8891H21.8334ZM39.1112 55.6113C48.6155 55.6113 56.3889 63.242 56.3889 72.8891H57.3889C57.3889 62.6843 49.1624 54.6113 39.1112 54.6113V55.6113Z" fill="white"/>
</svg>
