<svg width="72" height="72" viewBox="0 0 72 72" fill="none" xmlns="http://www.w3.org/2000/svg">
<g clip-path="url(#clip0_292_27768)">
<mask id="mask0_292_27768" style="mask-type:luminance" maskUnits="userSpaceOnUse" x="-1" y="0" width="73" height="72">
<path d="M-0.000976562 0H71.999V72H-0.000976562V0Z" fill="white"/>
</mask>
<g mask="url(#mask0_292_27768)">
<path fill-rule="evenodd" clip-rule="evenodd" d="M32.599 62.5076L64.621 26.1076C74.271 15.1376 60.992 -1.2664 48.363 6.0256L7.77202 29.4596C1.36102 33.1616 -0.539975 41.6076 3.62002 47.9046L12.186 60.8686C16.922 68.0366 27.021 68.8466 32.599 62.5076Z" fill="#20BEFF"/>
<path d="M43.657 60.9604C56.1707 60.9604 66.315 49.9681 66.315 36.4084C66.315 22.8488 56.1707 11.8564 43.657 11.8564C31.1434 11.8564 20.999 22.8488 20.999 36.4084C20.999 49.9681 31.1434 60.9604 43.657 60.9604Z" fill="white"/>
<path fill-rule="evenodd" clip-rule="evenodd" d="M51.1561 36.9677L51.0261 36.9647C49.3791 36.9217 47.7521 36.8797 46.1261 36.8587C45.7301 36.8587 45.2261 37.6927 45.3791 38.0887C45.4231 38.1757 45.4671 38.2637 45.5331 38.3297C45.9831 38.7137 46.4381 39.0927 46.8931 39.4707L46.8941 39.4717C47.3501 39.8517 47.8061 40.2297 48.2561 40.6147C48.5641 40.8777 48.8281 40.9447 49.1791 40.7247C49.9921 40.2187 50.8701 40.2627 51.7491 40.4607C52.9131 40.7247 54.0111 42.3277 53.3741 43.7557C52.8911 44.8097 52.1001 45.5127 50.9801 45.7757C49.2891 46.1937 47.7301 45.0077 47.7731 43.2717C47.7951 42.6357 47.5751 42.2837 47.1581 41.8887C46.2363 41.0695 45.3354 40.2273 44.4561 39.3627C44.1711 39.0767 43.9071 39.0107 43.5341 39.1867C42.7871 39.5167 41.9961 39.5817 41.2271 39.2967C40.8321 39.1647 40.5901 39.2527 40.3271 39.5597C39.3871 40.6997 38.7791 41.4447 38.2171 42.1347C37.4781 43.0397 36.8171 43.8497 35.5831 45.3337C35.3421 45.6407 35.1001 45.9487 34.8591 46.2777C34.6611 46.5417 34.5951 46.7827 34.8151 47.0677C35.0561 47.3757 35.2101 47.7497 35.3201 48.1227C35.5831 48.9577 35.6501 49.7707 35.0781 50.5167C34.5031 51.6547 32.5851 51.7497 32.2901 51.7637C32.2421 51.7667 32.2371 51.7667 32.2891 51.7687C31.4541 51.8347 30.7951 51.1987 30.4431 50.4737C29.5511 49.8097 29.8081 48.1467 30.0481 47.3977C30.4441 46.2337 31.3881 45.7277 32.5961 45.8167C32.9691 45.8387 33.2331 45.8167 33.4751 45.4647C35.4621 42.6787 36.3251 41.7617 38.3351 39.6277L39.1631 38.7477C39.2361 38.6737 39.2901 38.6007 39.3431 38.5277L39.4261 38.4177C39.5041 38.1397 39.3631 37.9807 39.2281 37.8277C39.1698 37.7669 39.1185 37.6998 39.0751 37.6277C38.6131 36.7707 38.4601 35.8477 38.7451 34.9037C38.8551 34.5517 38.7451 34.3327 38.5251 34.1127C37.5496 33.1189 36.5686 32.1305 35.5821 31.1477C35.4861 31.1817 35.3901 31.2207 35.2931 31.2587C35.0811 31.3447 34.8641 31.4317 34.6381 31.4767C33.1881 31.7627 31.9361 30.9497 31.6281 29.5437C31.2771 28.0497 32.3311 26.2937 33.7591 25.7217C35.1431 25.1717 37.3181 26.5787 36.9661 28.3137C36.9491 28.3907 36.9391 28.4677 36.9281 28.5437C36.9168 28.6597 36.8926 28.7741 36.8561 28.8847C36.5491 29.6747 36.7681 30.2467 37.4271 30.7957C37.9221 31.2077 38.3821 31.6717 38.8401 32.1327C39.1141 32.4087 39.3881 32.6847 39.6681 32.9487C40.0631 33.3217 41.0521 33.2337 41.3811 32.7947C41.4691 32.6847 41.4691 32.5087 41.4691 32.3777C41.3738 31.047 41.3665 29.7114 41.4471 28.3797C41.4691 28.0717 41.4031 27.8087 41.1401 27.5897C41.1005 27.5556 41.0605 27.5219 41.0201 27.4887C40.9071 27.3967 40.7981 27.3067 40.7001 27.1937C39.1401 25.3487 40.1731 23.3497 41.8861 22.5807C42.1061 22.4927 42.3701 22.4487 42.6111 22.4487C43.7101 22.4047 44.9401 23.3717 45.3791 24.5787C45.7521 25.6337 45.4231 26.7327 44.4561 27.4787C44.2043 27.6541 43.9439 27.817 43.6761 27.9667C43.4931 28.0727 43.3011 28.1847 43.0941 28.3137C43.0511 29.5877 43.0071 30.9717 42.9631 32.3557L42.9611 32.4317C42.9561 32.5917 42.9501 32.7687 43.1391 32.8817C43.3461 33.0067 43.4951 32.8567 43.6221 32.7287L43.6441 32.7067L44.3681 31.9817C45.5981 30.7077 46.8511 29.4337 48.2781 28.3577C48.6081 28.0937 48.8061 27.8307 48.7621 27.3687C48.6741 26.2487 49.2221 25.3707 49.9921 24.6237C51.3531 23.3057 54.0991 23.9207 54.6921 25.6557C55.2421 27.3257 53.9671 29.4337 52.2101 29.6977C51.5218 29.8128 50.8151 29.7367 50.1671 29.4777C49.9261 29.3677 49.7071 29.3457 49.4871 29.5437C48.7731 30.2247 48.0531 30.8997 47.3341 31.5757C46.6141 32.2507 45.8951 32.9257 45.1811 33.6077L45.1531 33.6347C44.9831 33.8047 44.7931 33.9937 44.9181 34.2227C44.9501 34.2827 44.9801 34.3457 45.0101 34.4107C45.1451 34.6997 45.2871 35.0037 45.6641 35.0567C45.7581 35.0788 45.856 35.0788 45.9501 35.0567C47.4881 34.9467 49.0031 34.9697 50.5401 35.0567C50.9801 35.0787 51.2881 34.9697 51.5071 34.5297C51.7051 34.1127 52.0121 33.8047 52.4071 33.5857C54.7371 32.2897 56.6251 34.0907 56.7351 35.8917C56.8011 37.1217 55.9001 38.2637 54.4951 38.6817C53.2651 39.0547 51.9901 38.7477 51.4191 37.6047C51.3971 37.4297 51.2881 37.2097 51.1561 36.9677ZM43.7761 36.4407C43.7101 37.1437 42.9411 37.6707 41.9081 37.6927C41.5571 37.7147 41.2491 37.5387 41.0741 37.1217C41.0361 37.0187 40.9901 36.9227 40.9461 36.8287C40.8861 36.7027 40.8261 36.5787 40.7881 36.4407C40.4581 35.4747 41.1401 34.6837 42.1721 34.8157C42.1901 34.8207 42.2061 34.8267 42.2211 34.8327C42.2611 34.8477 42.2941 34.8597 42.3261 34.8597C43.2261 35.0347 43.8411 35.7377 43.7761 36.4407ZM51.8821 25.7657C51.4421 25.7877 51.0471 25.9417 50.7171 26.1397C50.3441 26.3807 50.2341 26.7547 50.3001 27.1717C50.3277 27.368 50.4171 27.5504 50.5554 27.6924C50.6937 27.8345 50.8736 27.9288 51.0691 27.9617C51.7941 28.0717 52.4311 27.9187 52.8921 27.2817C53.1561 26.9297 53.1781 26.5567 53.0021 26.1617C52.8601 25.8767 52.5861 25.8367 52.3201 25.7977L52.2551 25.7877C52.1231 25.7877 51.9691 25.7877 51.8821 25.7657ZM31.7671 47.8757C31.9201 47.6787 32.1171 47.5467 32.6891 47.5467C33.0621 47.5467 33.6991 48.2937 33.6991 49.0627C33.6781 49.5457 33.0411 50.1167 32.4691 50.1387C32.2721 50.1607 32.0961 50.0727 31.9421 49.9187C31.4371 49.3697 31.3491 48.4477 31.7671 47.8757ZM55.0231 36.2427C55.0011 35.5407 54.4301 34.9467 53.8371 35.0127C53.1771 35.0787 52.5411 35.7827 52.5851 36.3967C52.6291 36.8367 53.1121 37.2537 53.6171 37.2537C54.3201 37.2757 55.0451 36.7477 55.0231 36.2427ZM51.7931 43.1187C51.7721 43.6457 51.1781 44.1067 50.5191 44.1287C49.8821 44.1507 49.2451 43.6457 49.2891 43.1407C49.3331 42.5697 49.9041 42.0417 50.4751 42.0207C51.2001 41.9987 51.8151 42.5257 51.7931 43.1187ZM35.3851 28.9497C35.3631 28.4887 35.2091 28.0927 34.8351 27.8077C34.6601 27.6757 34.4621 27.6537 34.2861 27.7417C33.7371 28.0277 33.4301 28.7517 33.6061 29.3667C33.6271 29.4987 33.7371 29.6307 33.8461 29.7187C34.1551 29.9387 34.4841 29.8947 34.8131 29.7407C35.1211 29.5647 35.3631 29.3437 35.3851 28.9497ZM41.8211 25.5007C41.7551 25.0177 42.1071 24.4907 42.5681 24.4247C42.9851 24.3587 43.5781 24.8647 43.7101 25.3907C43.7761 25.8307 43.3151 26.2477 42.6341 26.3577C42.2381 26.4017 41.9091 26.0717 41.8211 25.5007Z" fill="#202124"/>
<path fill-rule="evenodd" clip-rule="evenodd" d="M27.942 56.8784C36.05 62.3354 47.442 61.5684 53.777 58.9354C60.113 56.3024 69.483 42.2594 65.897 30.8774C62.623 20.8974 53.614 11.3604 44.727 11.0484C27.419 10.5814 18.308 26.0344 18.308 35.6144C18.308 45.1944 24.2 54.2274 27.942 56.8784ZM29.712 54.2894C36.815 59.0704 46.392 58.6824 51.942 56.3764C57.492 54.0694 66.452 42.2534 63.311 32.2824C60.443 23.5404 52.202 14.4154 44.416 14.1424C29.255 13.7324 21.242 26.2994 21.242 34.6924C21.242 43.0844 26.434 51.9674 29.712 54.2894Z" fill="#202124"/>
</g>
</g>
<defs>
<clipPath id="clip0_292_27768">
<rect width="72" height="72" fill="white"/>
</clipPath>
</defs>
</svg>
